<svg xmlns="http://www.w3.org/2000/svg" version="1.1" xmlns:xlink="http://www.w3.org/1999/xlink" xmlns:svgjs="http://svgjs.com/svgjs" width="1440" height="500" preserveAspectRatio="none" viewBox="0 0 1440 500"><g mask="url(&quot;#SvgjsMask8568&quot;)" fill="none"><rect width="204" height="204" clip-path="url(&quot;#SvgjsClipPath8569&quot;)" x="1311.31" y="201" fill="url(#SvgjsPattern8570)" transform="rotate(57.14, 1413.31, 303)"></rect><path d="M197.69 133.4a5.6 5.6 0 1 0 0.84-11.17 5.6 5.6 0 1 0-0.84 11.17zM198.89 117.45a5.6 5.6 0 1 0 0.84-11.17 5.6 5.6 0 1 0-0.84 11.17zM200.09 101.49a5.6 5.6 0 1 0 0.84-11.17 5.6 5.6 0 1 0-0.84 11.17zM201.29 85.54a5.6 5.6 0 1 0 0.84-11.17 5.6 5.6 0 1 0-0.84 11.17z" stroke="rgba(6, 27, 75, 1)" stroke-width="1.91" stroke-dasharray="2, 2"></path><rect width="324" height="324" clip-path="url(&quot;#SvgjsClipPath8571&quot;)" x="54" y="20.06" fill="url(#SvgjsPattern8572)" transform="rotate(95.35, 216, 182.06)"></rect><rect width="144" height="144" clip-path="url(&quot;#SvgjsClipPath8573&quot;)" x="1051.78" y="129.9" fill="url(#SvgjsPattern8574)" transform="rotate(267.97, 1123.78, 201.9)"></rect><path d="M370.67 279.14L374.14 266.82 386.93 267.5 390.4 255.17 403.19 255.85 406.66 243.52 419.45 244.2M375.33 285.65L378.8 273.32 391.59 274 395.06 261.67 407.85 262.35 411.32 250.02 424.1 250.7M379.99 292.15L383.46 279.82 396.25 280.5 399.72 268.17 412.51 268.85 415.98 256.53 428.76 257.21" stroke="rgba(6, 27, 75, 1)" stroke-width="2.16" stroke-dasharray="2, 2"></path><path d="M1376.9 491.61L1382.13 503.3 1371.87 510.97 1377.09 522.66 1366.83 530.32 1372.06 542.01 1361.8 549.68M1369.16 489.6L1374.38 501.29 1364.12 508.95 1369.35 520.64 1359.09 528.31 1364.31 540 1354.05 547.66" stroke="rgba(6, 27, 75, 1)" stroke-width="1.01"></path><path d="M526.48 353 L428.19 345.01L419.9912452167834 406.34875478321663z" fill="rgba(6, 27, 75, 1)"></path><rect width="252" height="252" clip-path="url(&quot;#SvgjsClipPath8575&quot;)" x="362.4" y="-25.54" fill="url(#SvgjsPattern8576)" transform="rotate(86.11, 488.4, 100.46)"></rect><path d="M1331.73 370.67 L1465.46 488.91L1516.1462722292883 312.2387277707117z" stroke="rgba(6, 27, 75, 1)" stroke-width="1" stroke-dasharray="2, 2"></path><path d="M1358.08 485.78a5.6 5.6 0 1 0 8.82 6.9 5.6 5.6 0 1 0-8.82-6.9zM1370.68 495.64a5.6 5.6 0 1 0 8.81 6.91 5.6 5.6 0 1 0-8.81-6.91zM1383.27 505.51a5.6 5.6 0 1 0 8.82 6.9 5.6 5.6 0 1 0-8.82-6.9zM1395.87 515.37a5.6 5.6 0 1 0 8.82 6.91 5.6 5.6 0 1 0-8.82-6.91z" fill="rgba(6, 27, 75, 1)"></path><rect width="60" height="60" clip-path="url(&quot;#SvgjsClipPath8577&quot;)" x="769.43" y="229.18" fill="url(#SvgjsPattern8578)" transform="rotate(294.35, 799.43, 259.18)"></rect><rect width="60" height="60" clip-path="url(&quot;#SvgjsClipPath8579&quot;)" x="1153.71" y="152.44" fill="url(#SvgjsPattern8580)" transform="rotate(336.97, 1183.71, 182.44)"></rect><path d="M680.48 393.41999999999996 L759.1500000000001 495.54999999999995L779.6315994456947 384.66840055430526z" stroke="rgba(6, 27, 75, 1)" stroke-width="2.31" stroke-dasharray="3, 3"></path></g><defs><mask id="SvgjsMask8568"><rect width="1440" height="500" fill="#ffffff"></rect></mask><pattern x="0" y="0" width="204" height="6" patternUnits="userSpaceOnUse" id="SvgjsPattern8570"><rect width="204" height="3" x="0" y="0" fill="rgba(6, 27, 75, 1)"></rect><rect width="204" height="3" x="0" y="3" fill="rgba(0, 0, 0, 0)"></rect></pattern><clipPath id="SvgjsClipPath8569"><circle r="51" cx="1413.31" cy="303"></circle></clipPath><pattern x="0" y="0" width="6" height="6" patternUnits="userSpaceOnUse" id="SvgjsPattern8572"><path d="M3 1L3 5M1 3L5 3" stroke="rgba(6, 27, 75, 1)" fill="none" stroke-width="1"></path></pattern><clipPath id="SvgjsClipPath8571"><circle r="81" cx="216" cy="182.06"></circle></clipPath><pattern x="0" y="0" width="6" height="6" patternUnits="userSpaceOnUse" id="SvgjsPattern8574"><path d="M0 6L3 0L6 6" stroke="rgba(6, 27, 75, 1)" fill="none"></path></pattern><clipPath id="SvgjsClipPath8573"><circle r="36" cx="1123.78" cy="201.9"></circle></clipPath><pattern x="0" y="0" width="6" height="6" patternUnits="userSpaceOnUse" id="SvgjsPattern8576"><path d="M0 6L3 0L6 6" stroke="rgba(6, 27, 75, 1)" fill="none"></path></pattern><clipPath id="SvgjsClipPath8575"><circle r="63" cx="488.4" cy="100.46"></circle></clipPath><pattern x="0" y="0" width="6" height="6" patternUnits="userSpaceOnUse" id="SvgjsPattern8578"><path d="M0 6L3 0L6 6" stroke="rgba(6, 27, 75, 1)" fill="none"></path></pattern><clipPath id="SvgjsClipPath8577"><circle r="15" cx="799.43" cy="259.18"></circle></clipPath><pattern x="0" y="0" width="6" height="6" patternUnits="userSpaceOnUse" id="SvgjsPattern8580"><path d="M0 6L3 0L6 6" stroke="rgba(6, 27, 75, 1)" fill="none"></path></pattern><clipPath id="SvgjsClipPath8579"><circle r="15" cx="1183.71" cy="182.44"></circle></clipPath></defs></svg>