<svg xmlns="http://www.w3.org/2000/svg" width="1200" height="400" preserveAspectRatio="none"><g fill="none" mask="url(&quot;#a&quot;)"><path fill="url(&quot;#c&quot;)" d="M414.42 99.18h228v228h-228z" clip-path="url(&quot;#b&quot;)" transform="rotate(274.22 528.42 213.18)"/><path stroke="rgba(218, 24, 180, 1)" d="m1277 311.02-60.01-41.51-16.597 67.357z"/><path fill="url(&quot;#e&quot;)" d="M892.3 368.83h60v60h-60z" clip-path="url(&quot;#d&quot;)" transform="rotate(229.78 922.3 398.83)"/><path stroke="rgba(218, 24, 180, 1)" stroke-dasharray="3, 2" d="M649.46 338.04a5.6 5.6 0 1 0 6.97 8.78 5.6 5.6 0 1 0-6.97-8.78zm9.95 12.54a5.6 5.6 0 1 0 6.96 8.77 5.6 5.6 0 1 0-6.96-8.77zm9.94 12.53a5.6 5.6 0 1 0 6.97 8.77 5.6 5.6 0 1 0-6.97-8.77zm9.95 12.53a5.6 5.6 0 1 0 6.96 8.78 5.6 5.6 0 1 0-6.96-8.78z"/><path stroke="rgba(0, 228, 194, 1)" stroke-dasharray="2, 2" stroke-width="1.66" d="m230.61 171.4-12.06 4.29-6.84-10.83-12.06 4.3-6.84-10.83-12.06 4.29-6.84-10.83m59.32 12.05-12.07 4.29-6.83-10.83-12.07 4.3-6.83-10.83-12.07 4.29-6.83-10.83m59.31 12.05-12.06 4.29-6.84-10.83-12.06 4.29-6.84-10.82-12.06 4.29-6.84-10.83"/><path fill="url(&quot;#g&quot;)" d="M255.25 49.1h228v228h-228z" clip-path="url(&quot;#f&quot;)" transform="rotate(241.58 369.25 163.1)"/><path fill="url(&quot;#i&quot;)" d="M805.1 268.89h117.32v117.32H805.1z" clip-path="url(&quot;#h&quot;)" transform="rotate(130.47 863.76 327.55)"/><path fill="url(&quot;#k&quot;)" d="M402.62 168.05h117.4v117.4h-117.4z" clip-path="url(&quot;#j&quot;)" transform="rotate(73.48 461.32 226.75)"/><path stroke="rgba(0, 228, 194, 1)" stroke-width="3" d="m55.06 295.66 100.92 41.65.928-47.213z"/><path fill="url(&quot;#m&quot;)" d="M989.23 232.86h158.76v158.76H989.23z" clip-path="url(&quot;#l&quot;)" transform="rotate(253.02 1068.61 312.24)"/><path stroke="rgba(218, 24, 180, 1)" stroke-dasharray="2, 2" d="m1033.09 237.05-3.24-12.39 11.38-5.88-3.24-12.39 11.38-5.88-3.24-12.39 11.38-5.88m-17.12 58.07-3.23-12.39 11.37-5.88-3.23-12.39 11.37-5.88-3.23-12.39 11.38-5.88m-17.12 58.06-3.24-12.39 11.38-5.88-3.24-12.39 11.38-5.87-3.23-12.39 11.37-5.88"/></g><defs><clipPath id="b"><circle cx="528.42" cy="213.18" r="57"/></clipPath><clipPath id="d"><circle cx="922.3" cy="398.83" r="15"/></clipPath><clipPath id="f"><circle cx="369.25" cy="163.1" r="57"/></clipPath><clipPath id="h"><circle cx="863.76" cy="327.55" r="29.33"/></clipPath><clipPath id="j"><circle cx="461.32" cy="226.75" r="29.35"/></clipPath><clipPath id="l"><circle cx="1068.61" cy="312.24" r="39.69"/></clipPath><pattern id="c" width="228" height="6" x="0" y="0" patternUnits="userSpaceOnUse"><path fill="none" stroke="rgba(0, 171, 1)" d="M3 1v4M1 3h4"/></pattern><pattern id="i" width="8.38" height="8.38" x="0" y="0" patternUnits="userSpaceOnUse"><path fill="none" stroke="rgba(0, 171, 228, 0.5)" d="M4.19 1v6.38M1 4.19h6.38"/></pattern><pattern id="k" width="110.4" height="11.74" x="0" y="0" patternUnits="userSpaceOnUse"><path fill="rgba(0, 0, 0, 0)" d="M0 5.87h117.4v5.87H0z"/></pattern><pattern id="m" width="11.34" height="11.34" x="0" y="0" patternUnits="userSpaceOnUse"><path fill="none" stroke="rgba(0, 228, 194, 0.35)" stroke-width="2.03" d="M5.67 1v9.34M1 5.67h9.34"/></pattern><mask id="a"><path fill="#fff" d="M0 0h1200v400H0z"/></mask></defs></svg>