<svg xmlns="http://www.w3.org/2000/svg" width="800" height="500" preserveAspectRatio="none"><g fill="none" mask="url(&quot;#a&quot;)"><path stroke="rgba(0, 171, 228, 0.5)" stroke-width="2.62" d="m603.79 36.08 7.14 10.64-8.81 9.29 7.14 10.64-8.81 9.29 7.14 10.64-8.8 9.29m-2.97-60.45 7.13 10.63-8.8 9.3 7.14 10.63-8.81 9.3 7.14 10.63-8.8 9.3m-2.98-60.46 7.14 10.63-8.8 9.3 7.14 10.63-8.81 9.3 7.14 10.63-8.81 9.3"/><path fill="url(&quot;#c&quot;)" d="M41.43 136.37h294.48v294.48H41.43z" clip-path="url(&quot;#b&quot;)" transform="rotate(356.88 188.67 283.61)"/><path fill="url(&quot;#e&quot;)" d="M-39.57 68.98h324v324h-324z" clip-path="url(&quot;#d&quot;)" transform="rotate(116.24 122.43 230.98)"/><path fill="rgba(0, 228, 194, 0.35)" d="M155.09 28.65a5.6 5.6 0 1 0 9.99 5.07 5.6 5.6 0 1 0-9.99-5.07zm14.27 7.25a5.6 5.6 0 1 0 9.99 5.07 5.6 5.6 0 1 0-9.99-5.07zm14.27 7.24a5.6 5.6 0 1 0 9.98 5.07 5.6 5.6 0 1 0-9.98-5.07zm14.26 7.24a5.6 5.6 0 1 0 9.99 5.07 5.6 5.6 0 1 0-9.99-5.07z"/><path stroke="rgba(0, 171, 228, 0.5)" stroke-dasharray="3, 2" stroke-width="1.17" d="m868.29 411.79-15.25-15.26-7.463 22.718z"/><path stroke="rgba(218, 24, 180, 1)" stroke-dasharray="2, 2" stroke-width="2.13" d="m277.09 255.72-7.55 10.34-11.75-5.1-7.55 10.35-11.75-5.11-7.55 10.35-11.75-5.1"/><circle cx="26.46" cy="293.22" r="81.25" stroke="rgba(218, 24, 180, 1)" stroke-dasharray="3, 2" stroke-width="2.25"/><path fill="rgba(0, 171, 228, 0.5)" d="M289.01 458.78a5.6 5.6 0 1 0-11.11 1.47 5.6 5.6 0 1 0 11.11-1.47zm-15.86 2.1a5.6 5.6 0 1 0-11.11 1.47 5.6 5.6 0 1 0 11.11-1.47zm-15.87 2.1a5.6 5.6 0 1 0-11.1 1.46 5.6 5.6 0 1 0 11.1-1.46zm-15.86 2.09a5.6 5.6 0 1 0-11.1 1.47 5.6 5.6 0 1 0 11.1-1.47zm77.22-26.34a5.6 5.6 0 1 0-11.11 1.46 5.6 5.6 0 1 0 11.11-1.46zm-15.87 2.09a5.6 5.6 0 1 0-11.1 1.47 5.6 5.6 0 1 0 11.1-1.47zm-15.86 2.1a5.6 5.6 0 1 0-11.1 1.47 5.6 5.6 0 1 0 11.1-1.47zm-15.86 2.1a5.6 5.6 0 1 0-11.1 1.46 5.6 5.6 0 1 0 11.1-1.46z"/></g><defs><clipPath id="b"><circle cx="188.67" cy="283.61" r="73.62"/></clipPath><clipPath id="d"><circle cx="122.43" cy="230.98" r="81"/></clipPath><pattern id="c" width="8.18" height="8.18" x="0" y="0" patternUnits="userSpaceOnUse"><path fill="none" stroke="rgba(0, 171, 228, 0.5)" stroke-width="1.55" d="M4.09 1v6.18M1 4.09h6.18"/></pattern><pattern id="e" width="324" height="6" x="0" y="0" patternUnits="userSpaceOnUse"><path fill="rgba(0, 171, 228, 0.5)" d="M0 0h324v3H0z"/><path fill="rgba(0, 0, 0, 0)" d="M0 3h324v3H0z"/></pattern><mask id="a"><path fill="#fff" d="M0 0h800v500H0z"/></mask></defs></svg>