<svg xmlns="http://www.w3.org/2000/svg" width="1440" height="560" preserveAspectRatio="none"><g fill="none" mask="url(&quot;#a&quot;)"><path stroke="rgba(0, 255, 176, 0.53)" d="M3.6 303.16h50.79v26.1H3.6z"/><path stroke="rgba(255, 7, 146, 0.72)" d="M1.54 81.71a15.28 15.28 0 1 0 19.42 23.59z"/><path stroke="rgba(0, 255, 176, 0.53)" d="M999.76 26.35h14.83v21.5h-14.83z"/><path stroke="rgba(255, 7, 146, 0.72)" d="M622.24 74.92h50.5v29.97h-50.5z"/><path stroke="rgba(255, 7, 146, 0.72)" d="M215.3 228.94h20.51v20.51H215.3z"/><path fill="rgba(255, 7, 146, 0.72)" d="M1084.75 354.01h11.08v11.08h-11.08z"/><path stroke="rgba(255, 7, 146, 0.72)" d="M1307.69 512.16h19.47v34.04h-19.47z"/><path fill="rgba(255, 7, 146, 0.72)" d="M328.84 378.98a37.79 37.79 0 1 0-58.67 47.63z"/><path stroke="rgba(255, 7, 146, 0.72)" d="M731.89 351.9h7.39v7.39h-7.39zM752.25 545.81h6.65v6.65h-6.65z"/><path fill="rgba(0, 238, 255, 0.52)" d="M1331.89 86.9h30.01v28.58h-30.01z"/><path fill="rgba(0, 255, 176, 0.53)" d="M1042.17 321.17h8.21v52.66h-8.21z"/><path stroke="rgba(0, 238, 255, 0.52)" d="M1305.17 22.36h3.52v54.61h-3.52zM275.08 199.64h25.02v25.02h-25.02z"/><path stroke="rrgba(255, 7, 146, 0.72)" d="M1132.7 386.37h45.65v45.65h-45.65z"/><path stroke="rgba(255, 7, 146, 0.72)" d="M1019.53 498.77a37.81 37.81 0 1 0-60.48-45.39z"/><path fill="rgba(0, 238, 255, 0.52)" d="M1330.29 473.95a36.33 36.33 0 1 0 72.66 0 36.33 36.33 0 1 0-72.66 0z"/><path stroke="rgba(0, 238, 255, 1)" d="M468.63 4.11h3.02v23.11h-3.02z"/><path stroke="rgba(255, 7, 146, 1)" d="M1281.99 187.51a38.86 38.86 0 1 0 77.72 0 38.86 38.86 0 1 0-77.72 0z"/><path fill="rgba(12, 12, 228, 0.53)" d="M740.64 346.14h5.46v8.7h-5.46z"/><path stroke="rgba(0, 238, 255, 1)" d="M1131.2 97.48h53.45v53.45h-53.45z"/><path stroke="rgba(12, 12, 228, 0.53)" d="M296.2 215.22h42.44v42.44H296.2z"/><path stroke="rgba(255, 7, 146, 1)" d="M1281.99 187.51a38.86 38.86 0 1 0 77.72 0 38.86 38.86 0 1 0-77.72 0z"/><path stroke="rgba(0, 255, 176, 0.53)" d="M313.09 40.81a47.35 47.35 0 1 0 93.84 12.76z"/></g><defs><mask id="a"><path fill="#fff" d="M0 0h1440v560H0z"/></mask></defs></svg>