<svg xmlns="http://www.w3.org/2000/svg" width="1200" height="400" preserveAspectRatio="none"><g fill="none" mask="url(&quot;#a&quot;)"><path fill="url(&quot;#c&quot;)" d="M980.31 46.85h228v228h-228z" clip-path="url(&quot;#b&quot;)" transform="rotate(247.53 1094.31 160.85)"/><path stroke="rgba(0, 171, 228, 0.5)" stroke-dasharray="3, 2" stroke-width="2.3" d="M473.52 46.97a5.6 5.6 0 1 0-10.7-3.33 5.6 5.6 0 1 0 10.7 3.33zm-15.28-4.76a5.6 5.6 0 1 0-10.69-3.34 5.6 5.6 0 1 0 10.69 3.34zm-15.27-4.77a5.6 5.6 0 1 0-10.69-3.33 5.6 5.6 0 1 0 10.69 3.33zm-15.28-4.76A5.6 5.6 0 1 0 417 29.34a5.6 5.6 0 1 0 10.69 3.34zm81.14 8.55a5.6 5.6 0 1 0-10.69-3.33 5.6 5.6 0 1 0 10.69 3.33zm-15.27-4.76a5.6 5.6 0 1 0-10.7-3.34 5.6 5.6 0 1 0 10.7 3.34zm-15.28-4.77a5.6 5.6 0 1 0-10.69-3.34 5.6 5.6 0 1 0 10.69 3.34zm-15.27-4.76a5.6 5.6 0 1 0-10.69-3.34 5.6 5.6 0 1 0 10.69 3.34z"/><path fill="rgba(0, 171, 228, 0.5)" d="M66.98 244.97A5.6 5.6 0 1 0 56.51 241a5.6 5.6 0 1 0 10.47 3.97zm-14.96-5.67a5.6 5.6 0 1 0-10.47-3.98 5.6 5.6 0 1 0 10.47 3.98zm-14.96-5.68a5.6 5.6 0 1 0-10.47-3.97 5.6 5.6 0 1 0 10.47 3.97zm-14.96-5.68a5.6 5.6 0 1 0-10.47-3.97 5.6 5.6 0 1 0 10.47 3.97zm80.48 13.43a5.6 5.6 0 1 0-10.48-3.98 5.6 5.6 0 1 0 10.48 3.98zm-14.96-5.68a5.6 5.6 0 1 0-10.47-3.97 5.6 5.6 0 1 0 10.47 3.97zm-14.96-5.68a5.6 5.6 0 1 0-10.47-3.97 5.6 5.6 0 1 0 10.47 3.97zm-14.96-5.67a5.6 5.6 0 1 0-10.47-3.98 5.6 5.6 0 1 0 10.47 3.98zm80.47 13.42a5.6 5.6 0 1 0-10.47-3.97 5.6 5.6 0 1 0 10.47 3.97zm-14.96-5.68a5.6 5.6 0 1 0-10.47-3.97 5.6 5.6 0 1 0 10.47 3.97zm-14.96-5.67a5.6 5.6 0 1 0-10.47-3.98 5.6 5.6 0 1 0 10.47 3.98zm-14.96-5.68a5.6 5.6 0 1 0-10.47-3.97 5.6 5.6 0 1 0 10.47 3.97z"/><path fill="url(&quot;#e&quot;)" d="M674.39 181.12h106.8v106.8h-106.8z" clip-path="url(&quot;#d&quot;)" transform="rotate(175.96 727.79 234.52)"/><path fill="url(&quot;#g&quot;)" d="M467.49 250.76h146.08v146.08H467.49z" clip-path="url(&quot;#f&quot;)" transform="rotate(336.8 540.53 323.8)"/><path fill="url(&quot;#i&quot;)" d="M895.76-49.85h204v204h-204z" clip-path="url(&quot;#h&quot;)" transform="rotate(226.45 997.76 52.15)"/><path fill="url(&quot;#k&quot;)" d="M409.21-11.46h185.6v185.6h-185.6z" clip-path="url(&quot;#j&quot;)" transform="rotate(83.86 502.01 81.34)"/><path fill="rgba(0, 228, 194, 0.35)" d="m1188.06 220.99 13.14 71.93-46.814 4.279z"/><path fill="url(&quot;#m&quot;)" d="M776.57 187.03h161.28v161.28H776.57z" clip-path="url(&quot;#l&quot;)" transform="rotate(227.85 857.21 267.67)"/><path fill="url(&quot;#o&quot;)" d="M819.26 76.62h159.36v159.36H819.26z" clip-path="url(&quot;#n&quot;)" transform="rotate(127.58 898.94 156.3)"/><path fill="url(&quot;#q&quot;)" d="M991.75 189.42h128.88V318.3H991.75z" clip-path="url(&quot;#p&quot;)" transform="rotate(41.56 1056.19 253.86)"/><path stroke="rgba(0, 228, 194, 0.35)" stroke-dasharray="3, 3" stroke-width="2.99" d="M477.69 53.52a5.6 5.6 0 1 0-.91-11.17 5.6 5.6 0 1 0 .91 11.17zm-1.3-15.95a5.6 5.6 0 1 0-.9-11.17 5.6 5.6 0 1 0 .9 11.17zm-1.29-15.95a5.6 5.6 0 1 0-.91-11.16 5.6 5.6 0 1 0 .91 11.16zm-1.3-15.95a5.6 5.6 0 1 0-.91-11.16 5.6 5.6 0 1 0 .91 11.16zm22.43 78.44a5.6 5.6 0 1 0-.91-11.16 5.6 5.6 0 1 0 .91 11.16zm-1.29-15.94a5.6 5.6 0 1 0-.91-11.17 5.6 5.6 0 1 0 .91 11.17zm-1.3-15.95a5.6 5.6 0 1 0-.91-11.16 5.6 5.6 0 1 0 .91 11.16zm-1.3-15.95a5.6 5.6 0 1 0-.91-11.16 5.6 5.6 0 1 0 .91 11.16zm22.43 78.44a5.6 5.6 0 1 0-.9-11.16 5.6 5.6 0 1 0 .9 11.16zm-1.29-15.95a5.6 5.6 0 1 0-.91-11.16 5.6 5.6 0 1 0 .91 11.16zm-1.3-15.94a5.6 5.6 0 1 0-.91-11.17 5.6 5.6 0 1 0 .91 11.17zm-1.3-15.95a5.6 5.6 0 1 0-.9-11.16 5.6 5.6 0 1 0 .9 11.16z"/><path stroke="rgba(0, 228, 194, 0.35)" stroke-dasharray="2, 2" stroke-width="1.58" d="m954.88 428.3 11.95-101.59 65.201 121.971z"/><circle cx="197.16" cy="315.27" r="47.871" fill="rgba(0, 228, 194, 0.35)"/></g><defs><clipPath id="b"><circle cx="1094.31" cy="160.85" r="57"/></clipPath><clipPath id="d"><circle cx="727.79" cy="234.52" r="26.7"/></clipPath><clipPath id="f"><circle cx="540.53" cy="323.8" r="36.52"/></clipPath><clipPath id="h"><circle cx="997.76" cy="52.15" r="51"/></clipPath><clipPath id="j"><circle cx="502.01" cy="81.34" r="46.4"/></clipPath><clipPath id="l"><circle cx="857.21" cy="267.67" r="40.32"/></clipPath><clipPath id="n"><circle cx="898.94" cy="156.3" r="39.84"/></clipPath><clipPath id="p"><circle cx="1056.19" cy="253.86" r="32.22"/></clipPath><pattern id="c" width="228" height="6" x="0" y="0" patternUnits="userSpaceOnUse"><path fill="rgba(0, 228, 194, 0.35)" d="M0 0h228v3H0z"/><path fill="rgba(0, 0, 0, 0)" d="M0 3h228v3H0z"/></pattern><pattern id="e" width="8.9" height="8.9" x="0" y="0" patternUnits="userSpaceOnUse"><path fill="none" stroke="rgba(0, 171, 228, 0.5)" d="M0 8.9 4.45 0 8.9 8.9"/></pattern><pattern id="g" width="6.64" height="6.64" x="0" y="0" patternUnits="userSpaceOnUse"><path fill="none" stroke="rgba(0, 228, 194, 0.35)" d="M0 6.64 3.32 0l3.32 6.64"/></pattern><pattern id="i" width="6" height="6" x="0" y="0" patternUnits="userSpaceOnUse"><path fill="none" stroke="rgba(0, 228, 194, 0.35)" d="M3 1v4M1 3h4"/></pattern><pattern id="k" width="9.28" height="9.28" x="0" y="0" patternUnits="userSpaceOnUse"><path fill="none" stroke="rgba(0, 171, 228, 0.5)" stroke-width="1.37" d="M4.64 1v7.28M1 4.64h7.28"/></pattern><pattern id="m" width="161.28" height="8.96" x="0" y="0" patternUnits="userSpaceOnUse"><path fill="rgba(0, 171, 228, 0.5)" d="M0 0h161.28v4.48H0z"/><path fill="rgba(0, 0, 0, 0)" d="M0 4.48h161.28v4.48H0z"/></pattern><pattern id="o" width="9.96" height="9.96" x="0" y="0" patternUnits="userSpaceOnUse"><path fill="none" stroke="rgba(0, 171, 228, 0.5)" d="M4.98 1v7.96M1 4.98h7.96"/></pattern><pattern id="q" width="10.74" height="10.74" x="0" y="0" patternUnits="userSpaceOnUse"><path fill="none" stroke="rgba(0, 228, 194, 0.35)" d="M0 10.74 5.37 0l5.37 10.74"/></pattern><mask id="a"><path fill="#fff" d="M0 0h1200v400H0z"/></mask></defs></svg>