<svg xmlns="http://www.w3.org/2000/svg" width="1200" height="600" preserveAspectRatio="none"><g fill="none" mask="url(&quot;#a&quot;)"><path stroke="rgba(0, 228, 194, 0.35)" stroke-width="1.78" d="M1108.51 10.66a5.6 5.6 0 1 0 10.89 2.63 5.6 5.6 0 1 0-10.89-2.63zm15.55 3.76a5.6 5.6 0 1 0 10.89 2.62 5.6 5.6 0 1 0-10.89-2.62zm15.56 3.75a5.6 5.6 0 1 0 10.89 2.62 5.6 5.6 0 1 0-10.89-2.62zm15.55 3.75a5.6 5.6 0 1 0 10.89 2.62 5.6 5.6 0 1 0-10.89-2.62zm-81.52-3.2a5.6 5.6 0 1 0 10.89 2.62 5.6 5.6 0 1 0-10.89-2.62zm15.55 3.75a5.6 5.6 0 1 0 10.89 2.62 5.6 5.6 0 1 0-10.89-2.62zm15.56 3.75a5.6 5.6 0 1 0 10.89 2.62 5.6 5.6 0 1 0-10.89-2.62zm15.55 3.75a5.6 5.6 0 1 0 10.89 2.63 5.6 5.6 0 1 0-10.89-2.63z"/><path fill="url(&quot;#c&quot;)" d="M687.66 18.88h264.32V283.2H687.66z" clip-path="url(&quot;#b&quot;)" transform="rotate(244.74 819.82 151.04)"/><path fill="rgba(218, 24, 180, 1)" d="M565.85 560.66a5.6 5.6 0 1 0-4.22-10.37 5.6 5.6 0 1 0 4.22 10.37zm-6.03-14.82a5.6 5.6 0 1 0-4.22-10.37 5.6 5.6 0 1 0 4.22 10.37zm-6.03-14.82a5.6 5.6 0 1 0-4.22-10.37 5.6 5.6 0 1 0 4.22 10.37zm-6.03-14.82a5.6 5.6 0 1 0-4.23-10.37 5.6 5.6 0 1 0 4.23 10.37zm44.98 68.07a5.6 5.6 0 1 0-4.22-10.38 5.6 5.6 0 1 0 4.22 10.38zm-6.03-14.82a5.6 5.6 0 1 0-4.23-10.38 5.6 5.6 0 1 0 4.23 10.38zm-6.04-14.82a5.6 5.6 0 1 0-4.22-10.38 5.6 5.6 0 1 0 4.22 10.38zm-6.03-14.82a5.6 5.6 0 1 0-4.22-10.38 5.6 5.6 0 1 0 4.22 10.38zm44.98 68.06a5.6 5.6 0 1 0-4.22-10.37 5.6 5.6 0 1 0 4.22 10.37zm-6.03-14.82a5.6 5.6 0 1 0-4.22-10.37 5.6 5.6 0 1 0 4.22 10.37zm-6.03-14.82a5.6 5.6 0 1 0-4.22-10.37 5.6 5.6 0 1 0 4.22 10.37zm-6.03-14.82a5.6 5.6 0 1 0-4.23-10.37 5.6 5.6 0 1 0 4.23 10.37z"/><path stroke="rgba(0, 228, 194, 0.35)" d="m1253.05 629.42-153.63 100.26 7.931-119.014z"/><path fill="rgba(0, 228, 194, 0.35)" d="M480.02 396.65a5.6 5.6 0 1 0 2.31-10.96 5.6 5.6 0 1 0-2.31 10.96zm3.3-15.65a5.6 5.6 0 1 0 2.32-10.96 5.6 5.6 0 1 0-2.32 10.96zm3.31-15.66a5.6 5.6 0 1 0 2.31-10.96 5.6 5.6 0 1 0-2.31 10.96zm3.3-15.65a5.6 5.6 0 1 0 2.32-10.96 5.6 5.6 0 1 0-2.32 10.96zm-.87 81.58a5.6 5.6 0 1 0 2.32-10.96 5.6 5.6 0 1 0-2.32 10.96zm3.31-15.66a5.6 5.6 0 1 0 2.31-10.96 5.6 5.6 0 1 0-2.31 10.96zm3.3-15.65a5.6 5.6 0 1 0 2.32-10.96 5.6 5.6 0 1 0-2.32 10.96zm3.31-15.66a5.6 5.6 0 1 0 2.31-10.96 5.6 5.6 0 1 0-2.31 10.96z"/><path stroke="rgba(218, 24, 180, 1)" stroke-width="2.92" d="m1030.35 459.87 25.05 33.18 14.627-43.742z"/><path fill="url(&quot;#e&quot;)" d="M-84.33 98.57h192v192h-192z" clip-path="url(&quot;#d&quot;)" transform="rotate(142.29 11.67 194.57)"/><path fill="rgba(218, 24, 180, 1)" d="M900.35 492.08a5.6 5.6 0 1 0-11.05 1.83 5.6 5.6 0 1 0 11.05-1.83zm-15.79 2.62a5.6 5.6 0 1 0-11.05 1.83 5.6 5.6 0 1 0 11.05-1.83zm-15.78 2.61a5.6 5.6 0 1 0-11.05 1.83 5.6 5.6 0 1 0 11.05-1.83zm-15.79 2.61a5.6 5.6 0 1 0-11.05 1.83 5.6 5.6 0 1 0 11.05-1.83zm76.32-28.85a5.6 5.6 0 1 0-11.05 1.83 5.6 5.6 0 1 0 11.05-1.83zm-15.79 2.62a5.6 5.6 0 1 0-11.05 1.82 5.6 5.6 0 1 0 11.05-1.82zm-15.78 2.61a5.6 5.6 0 1 0-11.05 1.83 5.6 5.6 0 1 0 11.05-1.83zm-15.79 2.61a5.6 5.6 0 1 0-11.05 1.83 5.6 5.6 0 1 0 11.05-1.83z"/><path stroke="rgba(0, 171, 228, 0.5)" stroke-dasharray="4, 4" stroke-width="1.49" d="m890.4 43.85-12.77.91-3.7-12.26-12.77.91-3.7-12.26-12.77.91-3.7-12.26m53.95 27.46-12.77.91-3.7-12.26-12.77.91-3.7-12.26-12.77.91-3.7-12.26m53.95 27.46-12.78.91-3.69-12.26-12.77.92-3.7-12.27-12.77.92-3.7-12.26"/></g><defs><clipPath id="b"><circle cx="819.82" cy="151.04" r="66.08"/></clipPath><clipPath id="d"><circle cx="11.67" cy="194.57" r="48"/></clipPath><pattern id="c" width="8.26" height="8.26" x="0" y="0" patternUnits="userSpaceOnUse"><path fill="none" stroke="rgba(0, 171, 228, 0.5)" d="M0 8.26 4.13 0l4.13 8.26"/></pattern><pattern id="e" width="6" height="6" x="0" y="0" patternUnits="userSpaceOnUse"><path fill="none" stroke="rgba(0, 171, 228, 0.5)" d="m0 6 3-6 3 6"/></pattern><mask id="a"><path fill="#fff" d="M0 0h1200v600H0z"/></mask></defs></svg>