<svg xmlns="http://www.w3.org/2000/svg" preserveAspectRatio="xMaxYMax slice" viewBox="0 0 1000 500"><path fill="#fff" d="M0 0h1000v500H0z"/><path fill="#94eff2" d="M357.146 71.427A71.427 71.427 0 0 1 428.573 0l-71.427 71.427A71.427 71.427 0 0 0 428.573 0"/><path fill="#ff678b" d="M0 142.854a71.427 71.427 0 0 1 71.427-71.427L0 142.854a71.427 71.427 0 0 0 71.427-71.427"/><path fill="#fff" d="M285.715 71.428h71.428v71.428h-71.428z"/><path fill="#ffc0cf" d="M285.72 71.427a35.72 35.72 0 0 1 35.718 35.72l-35.719-35.72a35.72 35.72 0 0 0 35.72 35.72"/><path fill="#42e2e7" d="M321.427 107.146a35.72 35.72 0 0 1 35.72 35.72l-35.72-35.72a35.72 35.72 0 0 0 35.72 35.72"/><path fill="#f8fefe" d="M428.573 71.427A71.427 71.427 0 0 1 500 142.854l-71.427-71.427A71.427 71.427 0 0 0 500 142.854"/><path fill="#ffd1dc" d="M642.854 71.427a71.427 71.427 0 0 1 71.427 71.427l-71.427-71.427a71.427 71.427 0 0 0 71.427 71.427"/><path fill="#fff" d="M714.285 71.428h71.428v71.428h-71.428z"/><path fill="#ff85a2" d="M714.28 142.865A35.72 35.72 0 0 1 750 107.146l-35.72 35.72a35.72 35.72 0 0 0 35.72-35.72"/><path fill="#ff6e91" d="M857.146 71.427a71.427 71.427 0 0 1 71.427 71.427l-71.427-71.427a71.427 71.427 0 0 0 71.427 71.427"/><path fill="#ffb9ca" d="M928.573 71.427A71.427 71.427 0 0 1 1000 142.854l-71.427-71.427A71.427 71.427 0 0 0 1000 142.854"/><path fill="#ff4874" d="M71.427 214.28a71.427 71.427 0 0 1 71.427-71.426L71.427 214.28a71.427 71.427 0 0 0 71.427-71.427"/><path fill="#fff" d="M214.285 142.857h71.428v71.428h-71.428z"/><path fill="#ff4e78" d="M250 142.854a35.72 35.72 0 0 1 35.72 35.719L250 142.853a35.72 35.72 0 0 0 35.72 35.72"/><path fill="#fff" d="M357.143 142.857h71.428v71.428h-71.428z"/><path fill="#ff688c" d="M357.146 178.573a35.72 35.72 0 0 1 35.72-35.72l-35.72 35.72a35.72 35.72 0 0 0 35.72-35.72"/><path fill="#fff5f7" d="M392.854 178.573a35.72 35.72 0 0 1 35.719 35.72l-35.72-35.72a35.72 35.72 0 0 0 35.72 35.72"/><path fill="#fff" d="M428.572 142.857H500v71.428h-71.428z"/><path fill="#ffa0b7" d="M428.573 178.573a35.72 35.72 0 0 1 35.72 35.72l-35.72-35.72a35.72 35.72 0 0 0 35.72 35.72"/><path fill="#e8fcfc" d="M464.28 178.573a35.72 35.72 0 0 1 35.72 35.72l-35.72-35.72a35.72 35.72 0 0 0 35.72 35.72"/><path fill="#d8f9fa" d="M642.854 214.28a71.427 71.427 0 0 1 71.427-71.426l-71.427 71.427a71.427 71.427 0 0 0 71.427-71.427"/><path fill="#38e0e6" d="M714.28 142.854a71.427 71.427 0 0 1 71.428 71.427l-71.427-71.427a71.427 71.427 0 0 0 71.427 71.427"/><path fill="#ff668b" d="M785.72 214.28a71.427 71.427 0 0 1 71.426-71.426L785.72 214.28a71.427 71.427 0 0 0 71.427-71.427"/><path fill="#ff3968" d="M0 214.28a71.427 71.427 0 0 1 71.427 71.428L0 214.28a71.427 71.427 0 0 0 71.427 71.427"/><path fill="#fff" d="M142.857 214.285h71.428v71.428h-71.428z"/><path fill="#82ecef" d="M357.146 285.708a71.427 71.427 0 0 1 71.427-71.427l-71.427 71.427a71.427 71.427 0 0 0 71.427-71.427"/><path fill="#fff" d="M571.428 214.285h71.428v71.428h-71.428z"/><path fill="#5be6ea" d="M607.146 214.28a35.72 35.72 0 0 1 35.72 35.72l-35.72-35.72a35.72 35.72 0 0 0 35.72 35.72"/><path fill="#b1f3f5" d="M571.427 285.72a35.72 35.72 0 0 1 35.72-35.72l-35.72 35.72a35.72 35.72 0 0 0 35.72-35.72"/><path fill="#ffcad6" d="M607.146 250a35.72 35.72 0 0 1 35.72 35.72L607.145 250a35.72 35.72 0 0 0 35.72 35.72"/><path fill="#ffe2e9" d="M142.854 285.72a71.427 71.427 0 0 1 71.427 71.426l-71.427-71.427a71.427 71.427 0 0 0 71.427 71.427"/><path fill="#fff" d="M214.285 285.715h71.428v71.428h-71.428z"/><path fill="#ff4672" d="M214.28 357.146A35.72 35.72 0 0 1 250 321.427l-35.72 35.72a35.72 35.72 0 0 0 35.72-35.72"/><path fill="#01d8df" d="M357.146 285.72a71.427 71.427 0 0 1 71.427 71.426l-71.427-71.427a71.427 71.427 0 0 0 71.427 71.427"/><path fill="#ff3d6b" d="M428.573 357.146A71.427 71.427 0 0 1 500 285.72l-71.427 71.427A71.427 71.427 0 0 0 500 285.72"/><path fill="#fff" d="M857.143 285.715h71.428v71.428h-71.428z"/><path fill="#ff658a" d="M892.854 321.438a35.72 35.72 0 0 1 35.719-35.719l-35.72 35.72a35.72 35.72 0 0 0 35.72-35.72"/><path fill="#ffbccc" d="M857.146 321.427a35.72 35.72 0 0 1 35.72 35.72l-35.72-35.72a35.72 35.72 0 0 0 35.72 35.72"/><path fill="#0fdae1" d="M892.854 321.427a35.72 35.72 0 0 1 35.719 35.72l-35.72-35.72a35.72 35.72 0 0 0 35.72 35.72"/><path fill="#fff" d="M571.428 357.143h71.428v71.428h-71.428z"/><path fill="#c9f7f8" d="M785.72 428.573a71.427 71.427 0 0 1 71.426-71.427l-71.427 71.427a71.427 71.427 0 0 0 71.427-71.427"/><path fill="#fff" d="M0 428.572h71.428V500H0z"/><path fill="#ff4b76" d="M35.72 464.28A35.72 35.72 0 0 1 71.437 500L35.72 464.28A35.72 35.72 0 0 0 71.44 500"/><path fill="#fff" d="M285.715 428.572h71.428V500h-71.428z"/><path fill="#ff84a1" d="M321.427 464.292a35.72 35.72 0 0 1 35.72-35.719l-35.72 35.72a35.72 35.72 0 0 0 35.72-35.72"/><path fill="#ff7b9b" d="M321.427 464.28a35.72 35.72 0 0 1 35.72 35.72l-35.72-35.72a35.72 35.72 0 0 0 35.72 35.72"/><path fill="#ffe4eb" d="M357.146 428.573A71.427 71.427 0 0 1 428.573 500l-71.427-71.427A71.427 71.427 0 0 0 428.573 500"/><path fill="#ffb1c3" d="M500 428.573A71.427 71.427 0 0 1 571.427 500L500 428.573A71.427 71.427 0 0 0 571.427 500"/><path fill="#3de1e7" d="M785.72 500a71.427 71.427 0 0 1 71.426-71.427L785.72 500a71.427 71.427 0 0 0 71.427-71.427"/></svg>