<svg xmlns="http://www.w3.org/2000/svg" width="1440" height="500" preserveAspectRatio="none"><g fill="none" mask="url(&quot;#a&quot;)"><path fill="url(#c)" d="M1311.31 201h204v204h-204z" clip-path="url(&quot;#b&quot;)" transform="rotate(57.14 1413.31 303)"/><path stroke="rgba(6, 27, 75, 1)" stroke-dasharray="2, 2" stroke-width="1.91" d="M197.69 133.4a5.6 5.6 0 1 0 .84-11.17 5.6 5.6 0 1 0-.84 11.17zm1.2-15.95a5.6 5.6 0 1 0 .84-11.17 5.6 5.6 0 1 0-.84 11.17zm1.2-15.96a5.6 5.6 0 1 0 .84-11.17 5.6 5.6 0 1 0-.84 11.17zm1.2-15.95a5.6 5.6 0 1 0 .84-11.17 5.6 5.6 0 1 0-.84 11.17z"/><path fill="url(#e)" d="M54 20.06h324v324H54z" clip-path="url(&quot;#d&quot;)" transform="rotate(95.35 216 182.06)"/><path fill="url(#g)" d="M1051.78 129.9h144v144h-144z" clip-path="url(&quot;#f&quot;)" transform="rotate(267.97 1123.78 201.9)"/><path stroke="rgba(6, 27, 75, 1)" stroke-dasharray="2, 2" stroke-width="2.16" d="m370.67 279.14 3.47-12.32 12.79.68 3.47-12.33 12.79.68 3.47-12.33 12.79.68m-44.12 41.45 3.47-12.33 12.79.68 3.47-12.33 12.79.68 3.47-12.33 12.78.68m-44.11 41.45 3.47-12.33 12.79.68 3.47-12.33 12.79.68 3.47-12.32 12.78.68"/><path stroke="rgba(6, 27, 75, 1)" stroke-width="1.01" d="m1376.9 491.61 5.23 11.69-10.26 7.67 5.22 11.69-10.26 7.66 5.23 11.69-10.26 7.67m7.36-60.08 5.22 11.69-10.26 7.66 5.23 11.69-10.26 7.67 5.22 11.69-10.26 7.66"/><path fill="rgba(6, 27, 75, 1)" d="m526.48 353-98.29-7.99-8.199 61.339z"/><path fill="url(#i)" d="M362.4-25.54h252v252h-252z" clip-path="url(&quot;#h&quot;)" transform="rotate(86.11 488.4 100.46)"/><path stroke="rgba(6, 27, 75, 1)" stroke-dasharray="2, 2" d="m1331.73 370.67 133.73 118.24 50.686-176.671z"/><path fill="rgba(6, 27, 75, 1)" d="M1358.08 485.78a5.6 5.6 0 1 0 8.82 6.9 5.6 5.6 0 1 0-8.82-6.9zm12.6 9.86a5.6 5.6 0 1 0 8.81 6.91 5.6 5.6 0 1 0-8.81-6.91zm12.59 9.87a5.6 5.6 0 1 0 8.82 6.9 5.6 5.6 0 1 0-8.82-6.9zm12.6 9.86a5.6 5.6 0 1 0 8.82 6.91 5.6 5.6 0 1 0-8.82-6.91z"/><path fill="url(#k)" d="M769.43 229.18h60v60h-60z" clip-path="url(&quot;#j&quot;)" transform="rotate(294.35 799.43 259.18)"/><path fill="url(#m)" d="M1153.71 152.44h60v60h-60z" clip-path="url(&quot;#l&quot;)" transform="rotate(336.97 1183.71 182.44)"/><path stroke="rgba(6, 27, 75, 1)" stroke-dasharray="3, 3" stroke-width="2.31" d="m680.48 393.42 78.67 102.13 20.482-110.882z"/></g><defs><clipPath id="b"><circle cx="1413.31" cy="303" r="51"/></clipPath><clipPath id="d"><circle cx="216" cy="182.06" r="81"/></clipPath><clipPath id="f"><circle cx="1123.78" cy="201.9" r="36"/></clipPath><clipPath id="h"><circle cx="488.4" cy="100.46" r="63"/></clipPath><clipPath id="j"><circle cx="799.43" cy="259.18" r="15"/></clipPath><clipPath id="l"><circle cx="1183.71" cy="182.44" r="15"/></clipPath><pattern id="c" width="204" height="6" x="0" y="0" patternUnits="userSpaceOnUse"><path fill="rgba(6, 27, 75, 1)" d="M0 0h204v3H0z"/><path fill="rgba(0, 0, 0, 0)" d="M0 3h204v3H0z"/></pattern><pattern id="e" width="6" height="6" x="0" y="0" patternUnits="userSpaceOnUse"><path fill="none" stroke="rgba(6, 27, 75, 1)" d="M3 1v4M1 3h4"/></pattern><pattern id="g" width="6" height="6" x="0" y="0" patternUnits="userSpaceOnUse"><path fill="none" stroke="rgba(6, 27, 75, 1)" d="m0 6 3-6 3 6"/></pattern><pattern id="i" width="6" height="6" x="0" y="0" patternUnits="userSpaceOnUse"><path fill="none" stroke="rgba(6, 27, 75, 1)" d="m0 6 3-6 3 6"/></pattern><pattern id="k" width="6" height="6" x="0" y="0" patternUnits="userSpaceOnUse"><path fill="none" stroke="rgba(6, 27, 75, 1)" d="m0 6 3-6 3 6"/></pattern><pattern id="m" width="6" height="6" x="0" y="0" patternUnits="userSpaceOnUse"><path fill="none" stroke="rgba(6, 27, 75, 1)" d="m0 6 3-6 3 6"/></pattern><mask id="a"><path fill="#fff" d="M0 0h1440v500H0z"/></mask></defs></svg>