<svg xmlns="http://www.w3.org/2000/svg" width="600" height="600" preserveAspectRatio="none"><g fill="none" mask="url(&quot;#a&quot;)"><path stroke="rgba(0, 171, 228, 1)" stroke-dasharray="2, 2" d="M537.98 148.93 447.14 43.97 556.5 32.51z"/><path stroke="rgba(0, 228, 194, 1)" stroke-dasharray="3, 2" d="m558.89 28.97 12.73 1.48 1.35 12.74 12.72 1.47 1.35 12.74 12.72 1.48 1.35 12.73m-47.9-37.01 12.72 1.48 1.35 12.73L580 50.29l1.35 12.74 12.72 1.48 1.35 12.73m-47.9-37.01 12.72 1.48 1.35 12.73 12.73 1.48 1.34 12.74 12.73 1.47 1.35 12.74"/><path fill="url(#c)" d="M227.91 303.77h227.04v227.04H227.91z" clip-path="url(&quot;#b&quot;)" transform="rotate(149.39 341.43 417.29)"/><path fill="rgba(0, 171, 228, 1)" d="M163.59 519.06a5.6 5.6 0 1 0 3.33-10.7 5.6 5.6 0 1 0-3.33 10.7zm4.76-15.28a5.6 5.6 0 1 0 3.33-10.69 5.6 5.6 0 1 0-3.33 10.69zm4.76-15.28a5.6 5.6 0 1 0 3.33-10.69 5.6 5.6 0 1 0-3.33 10.69zm4.75-15.27a5.6 5.6 0 1 0 3.33-10.7 5.6 5.6 0 1 0-3.33 10.7zm-8.51 81.14a5.6 5.6 0 1 0 3.33-10.7 5.6 5.6 0 1 0-3.33 10.7zm4.76-15.28a5.6 5.6 0 1 0 3.33-10.69 5.6 5.6 0 1 0-3.33 10.69zm4.76-15.28a5.6 5.6 0 1 0 3.33-10.69 5.6 5.6 0 1 0-3.33 10.69zm4.75-15.27a5.6 5.6 0 1 0 3.34-10.7 5.6 5.6 0 1 0-3.34 10.7z"/><path fill="url(#e)" d="M-82.65-58.79h336v336h-336z" clip-path="url(&quot;#d&quot;)" transform="rotate(212.07 85.35 109.21)"/></g><defs><clipPath id="b"><circle cx="341.43" cy="417.29" r="56.76"/></clipPath><clipPath id="d"><circle cx="85.35" cy="109.21" r="84"/></clipPath><pattern id="c" width="10.32" height="10.32" x="0" y="0" patternUnits="userSpaceOnUse"><path fill="none" stroke="rgba(0, 171, 228, 1)" d="M0 10.32 5.16 0l5.16 10.32"/></pattern><pattern id="e" width="6" height="6" x="0" y="0" patternUnits="userSpaceOnUse"><path fill="none" stroke="rgba(0, 171, 228, 1)" d="m0 6 3-6 3 6"/></pattern><mask id="a"><path fill="#fff" d="M0 0h600v600H0z"/></mask></defs></svg>