<svg xmlns="http://www.w3.org/2000/svg" version="1.1" xmlns:xlink="http://www.w3.org/1999/xlink" xmlns:svgjs="http://svgjs.com/svgjs" width="1440" height="500" preserveAspectRatio="none" viewBox="0 0 1440 500"><g mask="url(&quot;#SvgjsMask1013&quot;)" fill="none"><path d="M1128.82 319.53a5.6 5.6 0 1 0 11.19-0.46 5.6 5.6 0 1 0-11.19 0.46zM1144.81 318.88a5.6 5.6 0 1 0 11.19-0.46 5.6 5.6 0 1 0-11.19 0.46zM1160.79 318.23a5.6 5.6 0 1 0 11.2-0.46 5.6 5.6 0 1 0-11.2 0.46zM1176.78 317.57a5.6 5.6 0 1 0 11.19-0.46 5.6 5.6 0 1 0-11.19 0.46zM1097.5 336.83a5.6 5.6 0 1 0 11.19-0.46 5.6 5.6 0 1 0-11.19 0.46zM1113.49 336.17a5.6 5.6 0 1 0 11.19-0.46 5.6 5.6 0 1 0-11.19 0.46zM1129.47 335.52a5.6 5.6 0 1 0 11.2-0.46 5.6 5.6 0 1 0-11.2 0.46zM1145.46 334.87a5.6 5.6 0 1 0 11.19-0.46 5.6 5.6 0 1 0-11.19 0.46z" stroke="rgba(6, 27, 75, 1)" stroke-width="2.34" stroke-dasharray="3, 2"></path><rect width="108" height="108" clip-path="url(&quot;#SvgjsClipPath1014&quot;)" x="1102.58" y="232.01" fill="url(#SvgjsPattern1015)" transform="rotate(154.76, 1156.58, 286.01)"></rect><rect width="128" height="128" clip-path="url(&quot;#SvgjsClipPath1016&quot;)" x="546.57" y="327.13" fill="url(#SvgjsPattern1017)" transform="rotate(242.24, 610.57, 391.13)"></rect><path d="M1374.46 266.75L1365.35 257.74 1372.14 246.88 1363.03 237.88 1369.82 227.02 1360.71 218.01 1367.5 207.15M1382.4 265.82L1373.3 256.81 1380.08 245.95 1370.98 236.95 1377.76 226.09 1368.66 217.08 1375.44 206.22M1390.35 264.89L1381.24 255.89 1388.03 245.03 1378.92 236.02 1385.71 225.16 1376.6 216.16 1383.39 205.3" stroke="rgba(6, 27, 75, 1)" stroke-width="1.55" stroke-dasharray="2, 2"></path><path d="M553.7 251.91L561.99 261.67 554.29 271.9 562.58 281.67 554.87 291.9 563.16 301.66 555.46 311.89M545.7 252.15L553.99 261.91 546.29 272.14 554.58 281.9 546.88 292.13 555.17 301.89 547.46 312.12" stroke="rgba(6, 27, 75, 1)" stroke-width="2.71" stroke-dasharray="2, 2"></path><rect width="312" height="312" clip-path="url(&quot;#SvgjsClipPath1018&quot;)" x="605.17" y="-12.79" fill="url(#SvgjsPattern1019)" transform="rotate(344.22, 761.17, 143.21)"></rect><path d="M84.78 241.38L93.95 232.44 104.68 239.44 113.86 230.5 124.59 237.49 133.76 228.56 144.49 235.55M85.55 249.34L94.73 240.41 105.46 247.4 114.64 238.47 125.37 245.46 134.54 236.52 145.27 243.52" stroke="rgba(6, 27, 75, 1)" stroke-width="1" stroke-dasharray="2, 2"></path><path d="M623.58 143.94 L576.15 63.03L545.8096306243377 157.54036937566232z" stroke="rgba(6, 27, 75, 1)" stroke-width="1.16" stroke-dasharray="4, 4"></path><rect width="215.16" height="215.16" clip-path="url(&quot;#SvgjsClipPath1020&quot;)" x="712.45" y="-50.47" fill="url(#SvgjsPattern1021)" transform="rotate(12.66, 820.03, 57.11)"></rect><path d="M866.65 450.5 L897.39 326.97L818.1754529420807 324.8904529420808z" fill="rgba(6, 27, 75, 1)"></path><rect width="208" height="208" clip-path="url(&quot;#SvgjsClipPath1022&quot;)" x="247.36" y="-77.89" fill="url(#SvgjsPattern1023)" transform="rotate(249.1, 351.36, 26.11)"></rect><circle r="41.666666666666664" cx="1251.83" cy="137.06" stroke="rgba(6, 27, 75, 1)" stroke-width="2.14" stroke-dasharray="2, 2"></circle><rect width="226.8" height="226.8" clip-path="url(&quot;#SvgjsClipPath1024&quot;)" x="604.75" y="236.66" fill="url(#SvgjsPattern1025)" transform="rotate(247.25, 718.15, 350.06)"></rect></g><defs><mask id="SvgjsMask1013"><rect width="1440" height="500" fill="#ffffff"></rect></mask><pattern x="0" y="0" width="6" height="6" patternUnits="userSpaceOnUse" id="SvgjsPattern1015"><path d="M0 6L3 0L6 6" stroke="rgba(6, 27, 75, 1)" fill="none"></path></pattern><clipPath id="SvgjsClipPath1014"><circle r="27" cx="1156.58" cy="286.01"></circle></clipPath><pattern x="0" y="0" width="12.8" height="12.8" patternUnits="userSpaceOnUse" id="SvgjsPattern1017"><path d="M6.4 1L6.4 11.8M1 6.4L11.8 6.4" stroke="rgba(6, 27, 75, 1)" fill="none" stroke-width="4.36"></path></pattern><clipPath id="SvgjsClipPath1016"><circle r="32" cx="610.57" cy="391.13"></circle></clipPath><pattern x="0" y="0" width="312" height="6" patternUnits="userSpaceOnUse" id="SvgjsPattern1019"><rect width="312" height="3" x="0" y="0" fill="rgba(6, 27, 75, 1)"></rect><rect width="312" height="3" x="0" y="3" fill="rgba(0, 0, 0, 0)"></rect></pattern><clipPath id="SvgjsClipPath1018"><circle r="78" cx="761.17" cy="143.21"></circle></clipPath><pattern x="0" y="0" width="9.78" height="9.78" patternUnits="userSpaceOnUse" id="SvgjsPattern1021"><path d="M4.89 1L4.89 8.78M1 4.89L8.78 4.89" stroke="rgba(6, 27, 75, 1)" fill="none" stroke-width="1.94"></path></pattern><clipPath id="SvgjsClipPath1020"><circle r="53.79" cx="820.03" cy="57.11"></circle></clipPath><pattern x="0" y="0" width="10.4" height="10.4" patternUnits="userSpaceOnUse" id="SvgjsPattern1023"><path d="M5.2 1L5.2 9.4M1 5.2L9.4 5.2" stroke="rgba(6, 27, 75, 1)" fill="none" stroke-width="2.88"></path></pattern><clipPath id="SvgjsClipPath1022"><circle r="52" cx="351.36" cy="26.11"></circle></clipPath><pattern x="0" y="0" width="11.34" height="11.34" patternUnits="userSpaceOnUse" id="SvgjsPattern1025"><path d="M5.67 1L5.67 10.34M1 5.67L10.34 5.67" stroke="rgba(6, 27, 75, 1)" fill="none" stroke-width="4.41"></path></pattern><clipPath id="SvgjsClipPath1024"><circle r="56.7" cx="718.15" cy="350.06"></circle></clipPath></defs></svg>