<svg xmlns="http://www.w3.org/2000/svg" version="1.1" xmlns:xlink="http://www.w3.org/1999/xlink" xmlns:svgjs="http://svgjs.dev/svgjs" viewBox="0 0 800 800"><defs><linearGradient x1="50%" y1="0%" x2="50%" y2="100%" id="ffflurry-grad" gradientTransform="rotate(270)"><stop stop-color="hsl(238, 82%, 13%)" stop-opacity="1" offset="0%"></stop><stop stop-color="hsl(205, 69%, 60%)" stop-opacity="1" offset="45%"></stop><stop stop-color="hsl(205, 69%, 80%)" stop-opacity="1" offset="100%"></stop></linearGradient></defs><rect width="100%" height="100%" fill="hsl(238, 82%, 13%)"></rect><g fill="url(#ffflurry-grad)"><rect width="66" height="3" x="197" y="32.5" rx="1.5" transform="rotate(45, 230, 34)" opacity="0.75"></rect><rect width="605" height="3" x="376.5" y="398.5" rx="1.5" transform="rotate(45, 679, 400)" opacity="0.36"></rect><rect width="238" height="3" x="-80" y="63.5" rx="1.5" transform="rotate(45, 39, 65)" opacity="0.78"></rect><rect width="151" height="3" x="-35.5" y="329.5" rx="1.5" transform="rotate(45, 40, 331)" opacity="0.81"></rect><rect width="278" height="3" x="210" y="211.5" rx="1.5" transform="rotate(45, 349, 213)" opacity="0.14"></rect><rect width="63" height="3" x="8.5" y="203.5" rx="1.5" transform="rotate(45, 40, 205)" opacity="0.15"></rect><rect width="494" height="3" x="-48" y="424.5" rx="1.5" transform="rotate(45, 199, 426)" opacity="0.78"></rect><rect width="425" height="3" x="544.5" y="450.5" rx="1.5" transform="rotate(45, 757, 452)" opacity="0.63"></rect><rect width="68" height="3" x="406" y="474.5" rx="1.5" transform="rotate(45, 440, 476)" opacity="0.55"></rect><rect width="69" height="3" x="317.5" y="46.5" rx="1.5" transform="rotate(45, 352, 48)" opacity="0.61"></rect><rect width="116" height="3" x="605" y="610.5" rx="1.5" transform="rotate(45, 663, 612)" opacity="0.45"></rect><rect width="169" height="3" x="626.5" y="117.5" rx="1.5" transform="rotate(45, 711, 119)" opacity="0.66"></rect><rect width="206" height="3" x="392" y="264.5" rx="1.5" transform="rotate(45, 495, 266)" opacity="0.44"></rect><rect width="35" height="3" x="476.5" y="406.5" rx="1.5" transform="rotate(45, 494, 408)" opacity="0.37"></rect><rect width="316" height="3" x="295" y="594.5" rx="1.5" transform="rotate(45, 453, 596)" opacity="0.42"></rect><rect width="333" height="3" x="93.5" y="173.5" rx="1.5" transform="rotate(45, 260, 175)" opacity="0.62"></rect><rect width="519" height="3" x="214.5" y="68.5" rx="1.5" transform="rotate(45, 474, 70)" opacity="0.77"></rect><rect width="65" height="3" x="533.5" y="768.5" rx="1.5" transform="rotate(45, 566, 770)" opacity="0.84"></rect><rect width="479" height="3" x="134.5" y="560.5" rx="1.5" transform="rotate(45, 374, 562)" opacity="0.17"></rect><rect width="73" height="3" x="1.5" y="756.5" rx="1.5" transform="rotate(45, 38, 758)" opacity="0.39"></rect><rect width="519" height="3" x="387.5" y="483.5" rx="1.5" transform="rotate(45, 647, 485)" opacity="0.27"></rect><rect width="368" height="3" x="497" y="756.5" rx="1.5" transform="rotate(45, 681, 758)" opacity="0.94"></rect><rect width="506" height="3" x="379" y="184.5" rx="1.5" transform="rotate(45, 632, 186)" opacity="0.36"></rect><rect width="84" height="3" x="105" y="236.5" rx="1.5" transform="rotate(45, 147, 238)" opacity="0.71"></rect><rect width="281" height="3" x="153.5" y="643.5" rx="1.5" transform="rotate(45, 294, 645)" opacity="0.59"></rect><rect width="170" height="3" x="66" y="611.5" rx="1.5" transform="rotate(45, 151, 613)" opacity="0.49"></rect><rect width="428" height="3" x="380" y="265.5" rx="1.5" transform="rotate(45, 594, 267)" opacity="0.63"></rect><rect width="433" height="3" x="543.5" y="342.5" rx="1.5" transform="rotate(45, 760, 344)" opacity="0.65"></rect><rect width="195" height="3" x="35.5" y="487.5" rx="1.5" transform="rotate(45, 133, 489)" opacity="0.25"></rect><rect width="381" height="3" x="110.5" y="540.5" rx="1.5" transform="rotate(45, 301, 542)" opacity="0.26"></rect><rect width="207" height="3" x="262.5" y="468.5" rx="1.5" transform="rotate(45, 366, 470)" opacity="0.72"></rect><rect width="229" height="3" x="-87.5" y="587.5" rx="1.5" transform="rotate(45, 27, 589)" opacity="0.09"></rect><rect width="188" height="3" x="-66" y="677.5" rx="1.5" transform="rotate(45, 28, 679)" opacity="0.42"></rect><rect width="580" height="3" x="-246" y="456.5" rx="1.5" transform="rotate(45, 44, 458)" opacity="0.77"></rect><rect width="153" height="3" x="328.5" y="654.5" rx="1.5" transform="rotate(45, 405, 656)" opacity="0.93"></rect><rect width="47" height="3" x="517.5" y="465.5" rx="1.5" transform="rotate(45, 541, 467)" opacity="0.42"></rect><rect width="511" height="3" x="-147.5" y="140.5" rx="1.5" transform="rotate(45, 108, 142)" opacity="0.84"></rect><rect width="586" height="3" x="105" y="137.5" rx="1.5" transform="rotate(45, 398, 139)" opacity="0.32"></rect><rect width="223" height="3" x="655.5" y="748.5" rx="1.5" transform="rotate(45, 767, 750)" opacity="0.96"></rect><rect width="189" height="3" x="122.5" y="573.5" rx="1.5" transform="rotate(45, 217, 575)" opacity="0.80"></rect><rect width="512" height="3" x="408" y="50.5" rx="1.5" transform="rotate(45, 664, 52)" opacity="0.95"></rect><rect width="325" height="3" x="286.5" y="367.5" rx="1.5" transform="rotate(45, 449, 369)" opacity="0.35"></rect><rect width="527" height="3" x="39.5" y="323.5" rx="1.5" transform="rotate(45, 303, 325)" opacity="0.37"></rect><rect width="141" height="3" x="11.5" y="562.5" rx="1.5" transform="rotate(45, 82, 564)" opacity="0.45"></rect><rect width="112" height="3" x="36" y="669.5" rx="1.5" transform="rotate(45, 92, 671)" opacity="0.61"></rect><rect width="626" height="3" x="436" y="552.5" rx="1.5" transform="rotate(45, 749, 554)" opacity="0.08"></rect><rect width="333" height="3" x="219.5" y="737.5" rx="1.5" transform="rotate(45, 386, 739)" opacity="0.37"></rect><rect width="270" height="3" x="116" y="481.5" rx="1.5" transform="rotate(45, 251, 483)" opacity="0.91"></rect><rect width="230" height="3" x="142" y="106.5" rx="1.5" transform="rotate(45, 257, 108)" opacity="0.90"></rect><rect width="333" height="3" x="-43.5" y="36.5" rx="1.5" transform="rotate(45, 123, 38)" opacity="0.80"></rect><rect width="567" height="3" x="260.5" y="634.5" rx="1.5" transform="rotate(45, 544, 636)" opacity="0.68"></rect><rect width="231" height="3" x="339.5" y="308.5" rx="1.5" transform="rotate(45, 455, 310)" opacity="0.61"></rect><rect width="636" height="3" x="180" y="192.5" rx="1.5" transform="rotate(45, 498, 194)" opacity="0.83"></rect><rect width="107" height="3" x="258.5" y="755.5" rx="1.5" transform="rotate(45, 312, 757)" opacity="0.30"></rect><rect width="292" height="3" x="397" y="327.5" rx="1.5" transform="rotate(45, 543, 329)" opacity="0.18"></rect><rect width="259" height="3" x="609.5" y="665.5" rx="1.5" transform="rotate(45, 739, 667)" opacity="0.15"></rect><rect width="204" height="3" x="400" y="540.5" rx="1.5" transform="rotate(45, 502, 542)" opacity="0.25"></rect><rect width="452" height="3" x="-48" y="109.5" rx="1.5" transform="rotate(45, 178, 111)" opacity="0.99"></rect><rect width="540" height="3" x="469" y="208.5" rx="1.5" transform="rotate(45, 739, 210)" opacity="0.88"></rect><rect width="158" height="3" x="94" y="700.5" rx="1.5" transform="rotate(45, 173, 702)" opacity="0.77"></rect><rect width="44" height="3" x="677" y="284.5" rx="1.5" transform="rotate(45, 699, 286)" opacity="0.41"></rect><rect width="396" height="3" x="-77" y="350.5" rx="1.5" transform="rotate(45, 121, 352)" opacity="0.89"></rect><rect width="415" height="3" x="363.5" y="121.5" rx="1.5" transform="rotate(45, 571, 123)" opacity="0.97"></rect><rect width="139" height="3" x="143.5" y="339.5" rx="1.5" transform="rotate(45, 213, 341)" opacity="0.79"></rect><rect width="435" height="3" x="41.5" y="253.5" rx="1.5" transform="rotate(45, 259, 255)" opacity="0.94"></rect><rect width="118" height="3" x="718" y="142.5" rx="1.5" transform="rotate(45, 777, 144)" opacity="0.68"></rect><rect width="530" height="3" x="114" y="351.5" rx="1.5" transform="rotate(45, 379, 353)" opacity="0.22"></rect><rect width="420" height="3" x="386" y="382.5" rx="1.5" transform="rotate(45, 596, 384)" opacity="0.89"></rect><rect width="243" height="3" x="447.5" y="33.5" rx="1.5" transform="rotate(45, 569, 35)" opacity="0.68"></rect><rect width="63" height="3" x="202.5" y="737.5" rx="1.5" transform="rotate(45, 234, 739)" opacity="0.48"></rect><rect width="279" height="3" x="460.5" y="703.5" rx="1.5" transform="rotate(45, 600, 705)" opacity="0.21"></rect><rect width="351" height="3" x="-55.5" y="761.5" rx="1.5" transform="rotate(45, 120, 763)" opacity="0.30"></rect><rect width="364" height="3" x="410" y="545.5" rx="1.5" transform="rotate(45, 592, 547)" opacity="0.51"></rect><rect width="439" height="3" x="537.5" y="40.5" rx="1.5" transform="rotate(45, 757, 42)" opacity="0.79"></rect><rect width="387" height="3" x="212.5" y="258.5" rx="1.5" transform="rotate(45, 406, 260)" opacity="0.15"></rect><rect width="144" height="3" x="246" y="410.5" rx="1.5" transform="rotate(45, 318, 412)" opacity="0.14"></rect><rect width="450" height="3" x="250" y="739.5" rx="1.5" transform="rotate(45, 475, 741)" opacity="0.88"></rect></g></svg>