<svg xmlns="http://www.w3.org/2000/svg" version="1.1" xmlns:xlink="http://www.w3.org/1999/xlink" xmlns:svgjs="http://svgjs.com/svgjs" width="1440" height="500" preserveAspectRatio="none" viewBox="0 0 1440 500"><g mask="url(&quot;#SvgjsMask1088&quot;)" fill="none"><path d="M788.72 362.37L787.81 349.59 800.08 345.9 799.16 333.13 811.43 329.43 810.52 316.66 822.78 312.97M795.31 366.91L794.4 354.13 806.66 350.44 805.75 337.67 818.01 333.97 817.1 321.2 829.36 317.51M801.9 371.45L800.99 358.67 813.25 354.98 812.34 342.21 824.6 338.51 823.69 325.74 835.95 322.05" stroke="rgba(6, 27, 75, 1)" stroke-width="1" stroke-dasharray="3, 2"></path><path d="M584.93 436.25 L694.72 394.86L589.2922160189627 365.02221601896264z" fill="rgba(6, 27, 75, 1)"></path><circle r="71.79036620957339" cx="748.33" cy="366.35" stroke="rgba(6, 27, 75, 1)" stroke-width="1.64" stroke-dasharray="3, 2"></circle><path d="M1034.22 491.59L1021.57 489.58 1020.76 476.8 1008.11 474.79 1007.29 462.01 994.64 460 993.82 447.22" stroke="rgba(6, 27, 75, 1)" stroke-width="1.66" stroke-dasharray="4, 4"></path><path d="M698.12 165.36 L668.3299999999999 113.02L658.6375666326679 163.777433367332z" stroke="rgba(6, 27, 75, 1)" stroke-width="1"></path><rect width="60" height="60" clip-path="url(&quot;#SvgjsClipPath1089&quot;)" x="1244.81" y="238.56" fill="url(#SvgjsPattern1090)" transform="rotate(198.61, 1274.81, 268.56)"></rect><rect width="204" height="204" clip-path="url(&quot;#SvgjsClipPath1091&quot;)" x="803.57" y="83.11" fill="url(#SvgjsPattern1092)" transform="rotate(281.38, 905.57, 185.11)"></rect><rect width="101.8" height="101.8" clip-path="url(&quot;#SvgjsClipPath1093&quot;)" x="1277.48" y="327.82" fill="url(#SvgjsPattern1094)" transform="rotate(209.15, 1328.38, 378.72)"></rect><path d="M1370.54 288.68 L1400.46 400.18L1431.1247719732253 298.80522802677467z" fill="rgba(6, 27, 75, 1)"></path><rect width="214.92" height="214.92" clip-path="url(&quot;#SvgjsClipPath1095&quot;)" x="467.87" y="282.88" fill="url(#SvgjsPattern1096)" transform="rotate(141.94, 575.33, 390.34)"></rect><path d="M1113.37 461.71a5.6 5.6 0 1 0-11.14 1.12 5.6 5.6 0 1 0 11.14-1.12zM1097.45 463.31a5.6 5.6 0 1 0-11.14 1.11 5.6 5.6 0 1 0 11.14-1.11zM1081.53 464.9a5.6 5.6 0 1 0-11.14 1.12 5.6 5.6 0 1 0 11.14-1.12zM1065.61 466.5a5.6 5.6 0 1 0-11.14 1.12 5.6 5.6 0 1 0 11.14-1.12zM1143.62 442.59a5.6 5.6 0 1 0-11.15 1.12 5.6 5.6 0 1 0 11.15-1.12zM1127.7 444.19a5.6 5.6 0 1 0-11.15 1.12 5.6 5.6 0 1 0 11.15-1.12zM1111.78 445.79a5.6 5.6 0 1 0-11.15 1.12 5.6 5.6 0 1 0 11.15-1.12zM1095.86 447.39a5.6 5.6 0 1 0-11.15 1.11 5.6 5.6 0 1 0 11.15-1.11z" stroke="rgba(6, 27, 75, 1)" stroke-width="1" stroke-dasharray="3, 2"></path><rect width="204" height="204" clip-path="url(&quot;#SvgjsClipPath1097&quot;)" x="590.94" y="60.7" fill="url(#SvgjsPattern1098)" transform="rotate(216.84, 692.94, 162.7)"></rect><path d="M735.09 316.72 L731.85 268.58000000000004L700.534638685968 325.585361314032z" stroke="rgba(6, 27, 75, 1)" stroke-width="1" stroke-dasharray="3, 3"></path></g><defs><mask id="SvgjsMask1088"><rect width="1440" height="500" fill="#ffffff"></rect></mask><pattern x="0" y="0" width="6" height="6" patternUnits="userSpaceOnUse" id="SvgjsPattern1090"><path d="M0 6L3 0L6 6" stroke="rgba(6, 27, 75, 1)" fill="none"></path></pattern><clipPath id="SvgjsClipPath1089"><circle r="15" cx="1274.81" cy="268.56"></circle></clipPath><pattern x="0" y="0" width="6" height="6" patternUnits="userSpaceOnUse" id="SvgjsPattern1092"><path d="M0 6L3 0L6 6" stroke="rgba(6, 27, 75, 1)" fill="none"></path></pattern><clipPath id="SvgjsClipPath1091"><circle r="51" cx="905.57" cy="185.11"></circle></clipPath><pattern x="0" y="0" width="10.18" height="10.18" patternUnits="userSpaceOnUse" id="SvgjsPattern1094"><path d="M0 10.18L5.09 0L10.18 10.18" stroke="rgba(6, 27, 75, 1)" fill="none"></path></pattern><clipPath id="SvgjsClipPath1093"><circle r="25.45" cx="1328.38" cy="378.72"></circle></clipPath><pattern x="0" y="0" width="214.92" height="11.94" patternUnits="userSpaceOnUse" id="SvgjsPattern1096"><rect width="214.92" height="5.97" x="0" y="0" fill="rgba(6, 27, 75, 1)"></rect><rect width="214.92" height="5.97" x="0" y="5.97" fill="rgba(0, 0, 0, 0)"></rect></pattern><clipPath id="SvgjsClipPath1095"><circle r="53.73" cx="575.33" cy="390.34"></circle></clipPath><pattern x="0" y="0" width="204" height="6" patternUnits="userSpaceOnUse" id="SvgjsPattern1098"><rect width="204" height="3" x="0" y="0" fill="rgba(6, 27, 75, 1)"></rect><rect width="204" height="3" x="0" y="3" fill="rgba(0, 0, 0, 0)"></rect></pattern><clipPath id="SvgjsClipPath1097"><circle r="51" cx="692.94" cy="162.7"></circle></clipPath></defs></svg>