<svg xmlns="http://www.w3.org/2000/svg" version="1.1" xmlns:xlink="http://www.w3.org/1999/xlink" xmlns:svgjs="http://svgjs.com/svgjs" width="600" height="600" preserveAspectRatio="none" viewBox="0 0 600 600"><g mask="url(&quot;#SvgjsMask2317&quot;)" fill="none"><path d="M537.98 148.93 L447.14000000000004 43.97L556.4999070090895 32.51009299091057z" stroke="rgba(0, 171, 228, 1)" stroke-width="1" stroke-dasharray="2, 2"></path><path d="M558.89 28.97L571.62 30.45 572.97 43.19 585.69 44.66 587.04 57.4 599.76 58.88 601.11 71.61M553.21 34.6L565.93 36.08 567.28 48.81 580 50.29 581.35 63.03 594.07 64.51 595.42 77.24M547.52 40.23L560.24 41.71 561.59 54.44 574.32 55.92 575.66 68.66 588.39 70.13 589.74 82.87" stroke="rgba(0, 228, 194, 1)" stroke-width="1" stroke-dasharray="3, 2"></path><rect width="227.04000000000002" height="227.04000000000002" clip-path="url(&quot;#SvgjsClipPath2318&quot;)" x="227.91" y="303.77" fill="url(#SvgjsPattern2319)" transform="rotate(149.39, 341.43, 417.29)"></rect><path d="M163.59 519.06a5.6 5.6 0 1 0 3.33-10.7 5.6 5.6 0 1 0-3.33 10.7zM168.35 503.78a5.6 5.6 0 1 0 3.33-10.69 5.6 5.6 0 1 0-3.33 10.69zM173.11 488.5a5.6 5.6 0 1 0 3.33-10.69 5.6 5.6 0 1 0-3.33 10.69zM177.86 473.23a5.6 5.6 0 1 0 3.33-10.7 5.6 5.6 0 1 0-3.33 10.7zM169.35 554.37a5.6 5.6 0 1 0 3.33-10.7 5.6 5.6 0 1 0-3.33 10.7zM174.11 539.09a5.6 5.6 0 1 0 3.33-10.69 5.6 5.6 0 1 0-3.33 10.69zM178.87 523.81a5.6 5.6 0 1 0 3.33-10.69 5.6 5.6 0 1 0-3.33 10.69zM183.62 508.54a5.6 5.6 0 1 0 3.34-10.7 5.6 5.6 0 1 0-3.34 10.7z" fill="rgba(0, 171, 228, 1)"></path><rect width="336" height="336" clip-path="url(&quot;#SvgjsClipPath2320&quot;)" x="-82.65" y="-58.79" fill="url(#SvgjsPattern2321)" transform="rotate(212.07, 85.35, 109.21)"></rect></g><defs><mask id="SvgjsMask2317"><rect width="600" height="600" fill="#ffffff"></rect></mask><pattern x="0" y="0" width="10.32" height="10.32" patternUnits="userSpaceOnUse" id="SvgjsPattern2319"><path d="M0 10.32L5.16 0L10.32 10.32" stroke="rgba(0, 171, 228, 1)" fill="none"></path></pattern><clipPath id="SvgjsClipPath2318"><circle r="56.760000000000005" cx="341.43" cy="417.29"></circle></clipPath><pattern x="0" y="0" width="6" height="6" patternUnits="userSpaceOnUse" id="SvgjsPattern2321"><path d="M0 6L3 0L6 6" stroke="rgba(0, 171, 228, 1)" fill="none"></path></pattern><clipPath id="SvgjsClipPath2320"><circle r="84" cx="85.35" cy="109.21"></circle></clipPath></defs></svg>