<svg xmlns="http://www.w3.org/2000/svg" version="1.1" xmlns:xlink="http://www.w3.org/1999/xlink" xmlns:svgjs="http://svgjs.com/svgjs" width="1440" height="560" preserveAspectRatio="none" viewBox="0 0 1440 560"><g mask="url(&quot;#SvgjsMask1013&quot;)" fill="none"><path d="M1284.97 130.76L1340.61 130.76L1340.61 185.15L1284.97 185.15z" fill="rgba(0, 255, 200, 1)"></path><path d="M1352.11 97.75L1392.67 97.75L1392.67 152.98L1352.11 152.98z" fill="rgba(37, 51, 201, 1)"></path><path d="M16.86 374.22L42.6 374.22L42.6 430.01L16.86 430.01z" fill="rgba(19, 216, 223, 1)"></path><path d="M610.15 450.75a51.29 51.29 0 1 0 88.31-52.19z" stroke="rgba(19, 216, 223, 1)"></path><path d="M637.45 272.39 a30.75 30.75 0 1 0 61.5 0 a30.75 30.75 0 1 0 -61.5 0z" fill="rgba(0, 255, 200, 1)"></path><path d="M1005.58 351.49a17.75 17.75 0 1 0 34.9-6.5z" stroke="rgba(19, 216, 223, 1)"></path><path d="M672.55 345.33a23.77 23.77 0 1 0-20.56-42.87z" fill="rgba(0, 255, 200, 1)"></path><path d="M777.84 392.17L815.57 392.17L815.57 411.47L777.84 411.47z" fill="rgba(37, 51, 201, 1)"></path><path d="M1195.96 514.9a51.35 51.35 0 1 0 64.47-79.94z" fill="rgba(19, 216, 223, 1)"></path><path d="M155.65 511.71L200.5 511.71L200.5 516.42L155.65 516.42z" fill="rgba(0, 255, 200, 1)"></path><path d="M377.37 496.89L381.88 496.89L381.88 539.62L377.37 539.62z" fill="rgba(19, 216, 223, 1)"></path><path d="M1252.21 149.92L1267.57 149.92L1267.57 165.28L1252.21 165.28z" stroke="rgba(19, 216, 223, 1)"></path><path d="M431.93 64.71 a54.79 54.79 0 1 0 109.58 0 a54.79 54.79 0 1 0 -109.58 0z" fill="rgba(37, 51, 201, 1)"></path><path d="M393.49 52.95a34.82 34.82 0 1 0-68.94 9.83z" stroke="rgba(37, 51, 201, 1)"></path><path d="M462.95 156.46 a5.23 5.23 0 1 0 10.46 0 a5.23 5.23 0 1 0 -10.46 0z" stroke="rgba(37, 51, 201, 1)"></path><path d="M1074.26 378.78L1105.57 378.78L1105.57 410.09L1074.26 410.09z" fill="rgba(19, 216, 223, 1)"></path><path d="M3.33 107.31L21.13 107.31L21.13 160.22L3.33 160.22z" fill="rgba(37, 51, 201, 1)"></path><path d="M1324.78 482.28 a32.51 32.51 0 1 0 65.02 0 a32.51 32.51 0 1 0 -65.02 0z" fill="rgba(19, 216, 223, 1)"></path><path d="M604.51 179.6L622.09 179.6L622.09 185.36L604.51 185.36z" fill="rgba(0, 255, 200, 1)"></path><path d="M527.4 26.91L579.42 26.91L579.42 78.93L527.4 78.93z" fill="rgba(19, 216, 223, 1)"></path><path d="M1156.71 168.75a10.41 10.41 0 1 0 20.42-4.04z" fill="rgba(37, 51, 201, 1)"></path><path d="M840.45 237.06a34.44 34.44 0 1 0-36.96-58.13z" stroke="rgba(0, 255, 200, 1)"></path><path d="M46.12 458.9L66.01 458.9L66.01 470.96L46.12 470.96z" fill="rgba(19, 216, 223, 1)"></path><path d="M1397.78 549.51a48.54 48.54 0 1 0-87.08-42.92z" fill="rgba(37, 51, 201, 1)"></path><path d="M981.4 42.05L1017.41 42.05L1017.41 65.07L981.4 65.07z" fill="rgba(19, 216, 223, 1)"></path><path d="M656.29 536.07a26.77 26.77 0 1 0-2-53.51z" fill="rgba(19, 216, 223, 1)"></path><path d="M1354.71 161.81L1358.08 161.81L1358.08 209.57L1354.71 209.57z" stroke="rgba(19, 216, 223, 1)"></path><path d="M397.87 45.74L415.03 45.74L415.03 62.9L397.87 62.9z" stroke="rgba(0, 255, 200, 1)"></path><path d="M1276.71 466.07a47.77 47.77 0 1 0-68.32-66.8z" stroke="rgba(19, 216, 223, 1)"></path><path d="M38.96 298.46L53.76 298.46L53.76 313.26L38.96 313.26z" fill="rgba(19, 216, 223, 1)"></path><path d="M1403.62 428.91L1408.17 428.91L1408.17 433.46L1403.62 433.46z" stroke="rgba(19, 216, 223, 1)"></path><path d="M158.87 422.52 a19.83 19.83 0 1 0 39.66 0 a19.83 19.83 0 1 0 -39.66 0z" fill="rgba(0, 255, 200, 1)"></path><path d="M573.47 100.18 a12.3 12.3 0 1 0 24.6 0 a12.3 12.3 0 1 0 -24.6 0z" stroke="rgba(37, 51, 201, 1)"></path></g><defs><mask id="SvgjsMask1013"><rect width="1440" height="560" fill="#ffffff"></rect></mask></defs></svg>